<svg id="Layer_1" data-name="Layer 1" xmlns="http://www.w3.org/2000/svg" viewBox="0 0 200 51"><title>rewrite</title><g id="Group_1" data-name="Group 1"><path id="Path_1" data-name="Path 1" d="M22.42,10.55a8.62,8.62,0,0,0-7.59,4.32V11H8.41V40h6.42V27.23c0-5.13,2-10.62,7.53-10.62a11.55,11.55,0,0,1,2.49.17l.69.14v-6l-.43-.12a10.55,10.55,0,0,0-2.69-.26"/><path id="Path_2" data-name="Path 2" d="M41.49,10.25c-8.7,0-14.32,6-14.32,15.22s5.71,15.29,14.56,15.29c6.76,0,12.2-3.78,13.22-9.19l.12-.69H48.74l-.16.35C47.49,33.69,45.12,35,41.73,35c-4.82,0-7.84-2.75-8.17-7.38H55.09l.06-.7a27.69,27.69,0,0,0,.17-3c0-8-5.69-13.65-13.83-13.65m-.06,5.4c4.51,0,7.29,2.51,7.51,6.77H33.58c.46-4.2,3.42-6.77,7.85-6.77"/><path id="Path_3" data-name="Path 3" d="M91.39,30.05,85,11H78.57L72.21,30.05,65.91,11h-7L69.63,40h5.3l6.85-20.21L88.69,40H94L104.76,11H97.7Z"/><path id="Path_4" data-name="Path 4" d="M122.32,10.55a8.62,8.62,0,0,0-7.59,4.32V11h-6.42V40h6.42V27.23c0-5.13,2-10.62,7.53-10.62a11.55,11.55,0,0,1,2.49.17l.69.14v-6l-.42-.12a10.67,10.67,0,0,0-2.7-.26"/><rect id="Rectangle_2" data-name="Rectangle 2" x="130.16" y="10.97" width="6.42" height="29.06"/><path id="Path_5" data-name="Path 5" d="M156.76,34.45c-2.29,0-3.9-.38-3.9-5.41V16.55h7V11H141.41v5.58h5V30.19c0,9.14,5.24,10.2,9.18,10.2A23.34,23.34,0,0,0,160.4,40l.45-.1V34l-.71.16a19.21,19.21,0,0,1-3.38.29"/><path id="Path_6" data-name="Path 6" d="M177.76,10.25c-8.7,0-14.32,6-14.32,15.22S169.16,40.76,178,40.76c6.77,0,12.2-3.78,13.22-9.19l.13-.69H185l-.15.35C183.77,33.69,181.4,35,178,35c-4.89,0-7.84-2.68-8.17-7.38h21.53l.07-.72a27.41,27.41,0,0,0,.16-3c0-8-5.69-13.65-13.83-13.65m-.06,5.39c4.52,0,7.29,2.52,7.52,6.77H169.85c.46-4.19,3.42-6.77,7.85-6.77"/></g></svg>